<?xml version="1.0" encoding="UTF-8" standalone="no"?>
<!DOCTYPE svg PUBLIC "-//W3C//DTD SVG 1.1//EN" "http://www.w3.org/Graphics/SVG/1.1/DTD/svg11.dtd">
<svg width="100%" height="100%" viewBox="0 0 958 930" version="1.1" xmlns="http://www.w3.org/2000/svg" xmlns:xlink="http://www.w3.org/1999/xlink" xml:space="preserve" xmlns:serif="http://www.serif.com/" style="fill-rule:evenodd;clip-rule:evenodd;stroke-linejoin:round;stroke-miterlimit:2;">
    <g transform="matrix(1.06336,0,0,1.04554,181.572,-208.988)">
        <path d="M422.194,854.236C404.262,861.371 180.748,862.517 160.602,853.601C160.902,860.501 161.4,876.4 164,881C165.6,884 169.1,886.2 175.6,890.1C177,890.9 178.8,892 180.2,892.9C181.5,894.7 182.8,896.6 183.8,898.5C185,900.7 185.9,903 186.4,905.2L186.5,905.5L186.6,905.7C188.2,910.2 189.6,916 190.8,922.9C192.1,930.4 193.1,939.1 193.9,948.3C194.7,958.4 195.2,968.9 195.5,979.3C195.8,990.8 195.9,1002.2 195.6,1012.4L195.5,1016L196,1016.1L223.7,1046.1L223.5,1046.1L232.9,1054.3L257.2,1075.5L257.3,1075.6L257.9,1076.1C262.3,1079.9 266.8,1083.7 289.8,1084.6L290.2,1084.6C313.2,1083.8 317.6,1079.9 322.1,1076.1L322.7,1075.6L322.8,1075.5L347.1,1054.3L356.5,1046.1L356.4,1046.1L384.9,1016L384.5,1016L384.4,1012.4C384.2,1002.2 384.2,990.8 384.5,979.3C384.7,969 385.3,958.4 386.1,948.3C386.9,939.1 387.9,930.5 389.2,922.9C390.3,916.1 391.7,910.2 393.4,905.7L393.5,905.5L393.6,905.2C394.1,903 395,900.8 396.1,898.5C397.5,896 399.3,893.4 401.2,891.1L401.3,891C402.2,890.6 403.1,890.1 403.9,889.8C411.3,886.4 415.3,884.4 417.1,881C419.6,876.4 421.894,861.136 422.194,854.236ZM176.112,869.093C211.612,872.893 370.9,870 406.4,866C406.2,868.8 405.8,871.5 405.1,873.3C403.6,874.2 400.1,875.9 397.9,876.9C392.8,879.3 389.5,880.9 387.4,882.8C387.1,882.8 386.8,882.9 386.5,882.9C381.2,883.4 375.5,883.9 369.5,884.3C357.8,885.1 345.2,885.7 332.6,886.1C318,886.6 303.4,886.8 289.8,886.9C276.3,886.8 261.5,886.6 247,886.1C234.4,885.7 221.8,885.1 210.2,884.3C204.2,883.9 198.6,883.5 193.6,883C192.5,882.9 191.5,882.8 190.4,882.7C188.6,881.4 186.3,879.9 183.1,878C181,876.7 177.6,874.7 176.3,873.7C175.5,871.8 176.312,871.993 176.112,869.093ZM316.4,1069.9L315.8,1070.4C312.6,1073.1 309.4,1075.9 290,1076.7C270.6,1076 267.4,1073.2 264.2,1070.4L263.6,1069.9L247.9,1056.3C250.3,1056.4 253,1056.5 255.8,1056.6C260.8,1056.8 266.2,1056.9 272.1,1056.9C277.8,1057 283.9,1057 290,1057C296.1,1057 302.2,1056.9 307.9,1056.9C313.7,1056.8 319.2,1056.7 324.2,1056.6C327,1056.5 329.6,1056.4 332,1056.3L316.4,1069.9ZM386.1,896.4C384.7,899 383.7,901.7 383,904.5C381.3,909.3 379.8,915.4 378.6,922.3C377.3,929.9 376.3,938.6 375.6,947.8C374.8,957.5 374.3,968 374,978.5C373.7,988.6 373.6,998.6 373.8,1007.8L370.1,1008.1C367.1,1008.3 364.4,1008.5 361.7,1008.7C358.1,1008.9 354.5,1009.1 351.1,1009.3C347.3,1009.5 343.6,1009.7 340,1009.8C335.8,1010 331.8,1010.1 327.9,1010.2C323.7,1010.3 319.5,1010.4 315.5,1010.5C311.1,1010.6 306.8,1010.7 302.7,1010.7C298.3,1010.8 294,1010.8 289.9,1010.8C285.8,1010.8 281.5,1010.7 277.1,1010.7C273,1010.6 268.7,1010.6 264.3,1010.5C260.2,1010.4 256.1,1010.3 251.9,1010.2C248,1010 244,1009.9 239.8,1009.8C236.2,1009.6 232.5,1009.5 228.7,1009.3C225.3,1009.1 221.8,1008.9 218.1,1008.7C215.5,1008.5 212.7,1008.3 209.8,1008.1L206.1,1007.8C206.2,1001.4 206.2,994.7 206.1,987.8C216.1,988.7 227,989.3 238.2,989.8C258.8,990.7 280.2,991.1 298.7,991.1L298.7,985.1C280,985.1 258.7,984.7 238.5,983.8C227.1,983.3 216.1,982.6 206,981.7C206,980.6 205.9,979.5 205.9,978.5C205.8,973.6 205.6,968.6 205.3,963.8C215.5,964.7 226.7,965.4 238.2,965.9C258.8,966.8 280.2,967.2 298.7,967.2L298.7,961.2C280,961.2 258.7,960.8 238.5,959.9C226.8,959.4 215.4,958.7 205,957.7C204.8,954.3 204.6,951 204.3,947.7C204.1,945 203.8,942.3 203.5,939.7C214.1,940.7 226,941.4 238.2,942C258.8,942.9 280.2,943.3 298.7,943.3L298.7,937.3C280,937.3 258.7,936.9 238.5,936C226,935.4 213.8,934.7 202.9,933.6C202.4,929.6 201.9,925.8 201.2,922.2C200.8,919.8 200.4,917.6 199.9,915.5C211.5,916.6 224.6,917.5 238.2,918.1C258.8,919 280.2,919.4 298.7,919.4L298.7,913.4C280,913.4 258.7,913 238.5,912.1C224.2,911.5 210.4,910.5 198.4,909.3C197.9,907.5 197.4,905.9 196.8,904.3C196.2,901.6 195.1,898.9 193.8,896.2C192.9,894.5 191.8,892.9 190.8,891.3L194.2,891.7C199.5,892.2 205.1,892.7 210.8,893C222,893.8 234.5,894.3 247.3,894.8C261.6,895.3 276.1,895.5 289.5,895.6L289.6,895.6C303.1,895.5 317.6,895.3 331.9,894.8C344.7,894.4 357.2,893.8 368.4,893C374.3,892.6 380,892.2 385.3,891.6L388.9,891.2C388.1,893 387,894.7 386.1,896.4Z" style="fill-rule:nonzero;stroke:black;stroke-width:3.79px;"/>
    </g>
    <g transform="matrix(1.08222,-1.34608e-17,1.40157e-17,-1.24128,-100.454,928.206)">
        <path d="M768.895,604.476L320.218,604.476L420.1,191.083L669.012,191.083L768.895,604.476Z" style="fill:none;stroke:black;stroke-width:21.76px;stroke-linecap:round;stroke-miterlimit:1.5;"/>
    </g>
    <g transform="matrix(1,0,0,1,-2.08255,6.34276)">
        <rect x="325.233" y="554.306" width="325.751" height="1.433" style="fill:none;stroke:black;stroke-width:8.67px;stroke-linecap:round;stroke-miterlimit:1.5;"/>
    </g>
    <g transform="matrix(1.02621,0,0,1,-14.6434,-14.7856)">
        <path d="M248.509,182.103C248.288,178.892 248.176,175.671 248.176,172.431C248.176,71.18 360.029,29.618 494.026,29.618C628.022,29.618 733.746,71.18 733.746,172.431C733.746,175.671 733.634,178.892 733.413,182.103L248.509,182.103Z" style="fill:none;stroke:black;stroke-width:25px;stroke-linecap:round;stroke-miterlimit:1.5;"/>
    </g>
    <g transform="matrix(1,0,0,1,-2.08255,6.34276)">
        <rect x="248.176" y="160.974" width="485.569" height="21.128" style="stroke:black;stroke-width:14.67px;stroke-linecap:round;stroke-miterlimit:1.5;"/>
    </g>
</svg>
