<?xml version="1.0" encoding="iso-8859-1"?>
<!-- Generator: Adobe Illustrator 18.0.0, SVG Export Plug-In . SVG Version: 6.00 Build 0)  -->
<!DOCTYPE svg PUBLIC "-//W3C//DTD SVG 1.1//EN" "http://www.w3.org/Graphics/SVG/1.1/DTD/svg11.dtd">
<svg version="1.1" id="Capa_1" xmlns="http://www.w3.org/2000/svg" xmlns:xlink="http://www.w3.org/1999/xlink" x="0px" y="0px"
	 viewBox="0 0 431.844 431.844" style="enable-background:new 0 0 431.844 431.844;" xml:space="preserve">
<g>
	<g>
		<g>
			<path d="M20.042,244.299l-16.411-3.233c-2.438-0.48-4.025-2.847-3.545-5.285c0.48-2.439,2.846-4.026,5.284-3.546l16.411,3.233
				c2.438,0.48,4.025,2.847,3.545,5.285C24.846,243.192,22.48,244.779,20.042,244.299z"/>
		</g>
		<g>
			<path d="M25.585,276.692l-13.969,9.2c-2.076,1.367-4.866,0.793-6.233-1.283c-1.367-2.076-0.793-4.866,1.282-6.233l13.969-9.2
				c2.076-1.367,4.866-0.792,6.233,1.283C28.235,272.534,27.66,275.324,25.585,276.692z"/>
		</g>
		<g>
			<path d="M57.335,301.49l-3.236,16.41c-0.48,2.439-2.847,4.025-5.285,3.545c-2.438-0.481-4.024-2.846-3.545-5.285l3.235-16.41
				c0.482-2.438,2.847-4.025,5.286-3.545C56.228,296.684,57.814,299.051,57.335,301.49z"/>
		</g>
		<g>
			<path d="M94.7,283.908l9.358,13.864c1.391,2.06,0.85,4.857-1.212,6.247c-2.06,1.391-4.854,0.848-6.248-1.211l-9.358-13.861
				c-1.39-2.062-0.849-4.857,1.213-6.25C90.511,281.306,93.308,281.849,94.7,283.908z"/>
		</g>
		<g>
			<path d="M106.492,252.357l16.399,3.289c2.438,0.488,4.018,2.858,3.527,5.296c-0.487,2.437-2.857,4.015-5.297,3.528l-16.397-3.287
				c-2.438-0.49-4.018-2.86-3.529-5.299C101.683,253.449,104.054,251.871,106.492,252.357z"/>
		</g>
	</g>
	<g>
		<g>
			<path d="M411.803,244.299l16.411-3.233c2.438-0.48,4.025-2.847,3.545-5.285c-0.48-2.439-2.846-4.026-5.284-3.546l-16.411,3.233
				c-2.439,0.48-4.025,2.847-3.545,5.285C406.998,243.192,409.364,244.779,411.803,244.299z"/>
		</g>
		<g>
			<path d="M406.26,276.692l13.969,9.2c2.076,1.367,4.866,0.793,6.233-1.283c1.367-2.076,0.793-4.866-1.282-6.233l-13.969-9.2
				c-2.076-1.367-4.866-0.792-6.233,1.283C403.609,272.534,404.184,275.324,406.26,276.692z"/>
		</g>
		<g>
			<path d="M374.51,301.49l3.236,16.41c0.48,2.439,2.847,4.025,5.285,3.545c2.439-0.481,4.024-2.846,3.545-5.285l-3.235-16.41
				c-0.481-2.438-2.847-4.025-5.286-3.545C375.616,296.684,374.03,299.051,374.51,301.49z"/>
		</g>
		<g>
			<path d="M337.144,283.908l-9.358,13.864c-1.391,2.06-0.85,4.857,1.212,6.247c2.06,1.391,4.854,0.848,6.248-1.211l9.358-13.861
				c1.39-2.062,0.849-4.857-1.213-6.25C341.333,281.306,338.536,281.849,337.144,283.908z"/>
		</g>
		<g>
			<path d="M325.352,252.357l-16.399,3.289c-2.438,0.488-4.018,2.858-3.527,5.296c0.487,2.437,2.857,4.015,5.297,3.528l16.397-3.287
				c2.439-0.49,4.018-2.86,3.529-5.299C330.161,253.449,327.79,251.871,325.352,252.357z"/>
		</g>
	</g>
	<g>
		<g>
			<g>
				<g>
					<path d="M215.968,289.731c-1.136,0-2.271-0.427-3.148-1.284c-15.379-15.049-12.345-34.986-12.208-35.828
						c0.397-2.453,2.715-4.117,5.163-3.72c2.447,0.397,4.11,2.7,3.723,5.146l0,0c-0.102,0.658-2.352,16.257,9.617,27.969
						c1.776,1.738,1.807,4.587,0.068,6.364C218.303,289.278,217.136,289.731,215.968,289.731z"/>
				</g>
				<g>
					<g>
						<path d="M184.622,300.608l-11.793,11.863c-1.752,1.762-4.602,1.771-6.364,0.019c-1.763-1.753-1.771-4.602-0.019-6.364
							l11.793-11.863c1.751-1.762,4.601-1.771,6.365-0.018C186.366,295.998,186.374,298.846,184.622,300.608z"/>
					</g>
					<g>
						<path d="M247.368,300.608l11.793,11.863c1.752,1.762,4.602,1.771,6.364,0.019c1.763-1.753,1.771-4.602,0.019-6.364
							l-11.793-11.863c-1.751-1.762-4.601-1.771-6.365-0.018C245.624,295.998,245.616,298.846,247.368,300.608z"/>
					</g>
					<g>
						<path d="M275.891,270.004h-16.727c-2.485,0-4.5-2.015-4.5-4.5c0-2.485,2.015-4.5,4.5-4.5h16.727c2.485,0,4.5,2.015,4.5,4.5
							C280.391,267.989,278.377,270.004,275.891,270.004z"/>
					</g>
					<g>
						<path d="M172.77,270.004h-16.726c-2.485,0-4.5-2.015-4.5-4.5c0-2.485,2.015-4.5,4.5-4.5h16.726c2.485,0,4.5,2.015,4.5,4.5
							C177.27,267.989,175.256,270.004,172.77,270.004z"/>
					</g>
				</g>
				<g>
					<path d="M215.968,339.98c-2.485,0-4.5-2.015-4.5-4.5v-16.728c0-2.485,2.015-4.5,4.5-4.5s4.5,2.015,4.5,4.5v16.728
						C220.468,337.965,218.453,339.98,215.968,339.98z"/>
				</g>
			</g>
			<g>
				<g>
					<g>
						<path d="M59.433,272.16c-1.435,0-2.847-0.686-3.718-1.96c-12.147-17.761-5.281-36.725-4.983-37.523
							c0.869-2.328,3.461-3.51,5.79-2.642c2.324,0.868,3.507,3.452,2.646,5.777c-0.242,0.666-5.465,15.505,3.975,29.307
							c1.403,2.052,0.878,4.852-1.174,6.255C61.193,271.905,60.308,272.16,59.433,272.16z"/>
					</g>
				</g>
				<g>
					<g>
						<path d="M424.136,96.365c0-2.485-2.015-4.5-4.5-4.5c-2.485,0-4.5,2.015-4.5,4.5c0,13.854-20.571,27.932-56.438,38.626
							c-38.062,11.348-88.75,17.598-142.73,17.598c-53.979,0-104.667-6.25-142.73-17.598
							c-35.868-10.694-56.439-24.772-56.439-38.626c0-2.485-2.015-4.5-4.5-4.5c-2.485,0-4.5,2.015-4.5,4.5
							c0,18.649,21.739,34.988,62.868,47.251c2.766,0.825,5.604,1.62,8.496,2.392l-5.297,26.094l-11.72-2.331
							c-2.441-0.485-4.806,1.099-5.291,3.536l-4.437,22.302c-0.208,1.042-0.019,2.112,0.489,3.036
							c-8.339,7.639-14.866,20.121-17.748,34.605c-2.372,11.924-1.393,24.388,2.757,35.095c4.054,10.46,10.64,17.534,17.614,18.92
							c0.808,0.161,1.644,0.239,2.506,0.239C71.26,287.5,90.268,269.03,95.02,245.156c2.879-14.475,1.632-28.503-3.14-38.751
							c0.797-0.639,1.383-1.55,1.598-2.63l4.437-22.302c0.233-1.17-0.009-2.386-0.672-3.378c-0.663-0.992-1.692-1.681-2.863-1.914
							l-11.687-2.324l5.206-25.645c35.146,8.391,78.15,13.07,123.568,13.361v27.121h-11.933c-2.485,0-4.5,2.015-4.5,4.5v22.739
							c0,1.104,0.413,2.101,1.071,2.884c-6.69,9.119-10.656,22.635-10.656,37.402c0,27.143,16.695,48.999,30.518,48.999
							c13.451,0,30.516-23.07,30.516-48.999c0-14.767-3.964-28.287-10.651-37.408c0.656-0.782,1.067-1.777,1.067-2.879v-22.739
							c0-2.485-2.015-4.5-4.5-4.5h-11.932v-27.121c45.419-0.291,88.423-4.97,123.568-13.36l5.206,25.645l-11.686,2.324
							c-2.438,0.485-4.02,2.854-3.535,5.292l4.436,22.302c0.206,1.04,0.788,1.954,1.608,2.614c-4.779,10.25-6.03,24.284-3.15,38.768
							c4.75,23.876,23.758,42.347,36.982,42.346c0.861,0,1.699-0.079,2.506-0.239c6.976-1.386,13.561-8.46,17.615-18.92
							c4.149-10.707,5.129-23.171,2.757-35.095c-2.881-14.484-9.403-26.976-17.744-34.611c0.505-0.923,0.692-1.989,0.485-3.029
							l-4.436-22.302c-0.485-2.437-2.856-4.021-5.291-3.536l-11.72,2.331l-5.297-26.093c2.893-0.772,5.73-1.567,8.497-2.392
							C402.396,131.353,424.136,115.014,424.136,96.365z M86.193,243.4c-4.51,22.666-22.586,36.295-28.907,35.036
							c-3.131-0.623-7.739-4.99-10.978-13.345c-3.488-9.001-4.335-19.967-2.322-30.087c2.946-14.808,10.28-27.417,18.896-32.727
							l18.378,3.655C87.188,214.135,89.136,228.592,86.193,243.4z M88.21,184.13l-2.68,13.475l-23.406-4.655l2.68-13.475
							L88.21,184.13z M228.974,285.228c-4.701,7.215-10.102,10.99-13.007,10.99c-7.558,0-21.518-16.495-21.518-39.999
							c0-15.099,4.732-28.897,12.148-35.786h18.74c7.414,6.891,12.145,20.689,12.145,35.786
							C237.483,270.098,232.152,280.351,228.974,285.228z M227.899,197.693v13.739h-23.864v-13.739H227.899z M387.949,235.004
							c2.013,10.12,1.166,21.086-2.322,30.087c-3.238,8.355-7.848,12.723-10.978,13.345c-0.268,0.053-0.555,0.08-0.863,0.08
							c-6.942-0.001-23.725-13.413-28.042-35.114c-2.944-14.809-0.996-29.266,4.932-37.469l18.379-3.655
							C377.669,207.587,385.003,220.196,387.949,235.004z M367.132,179.475l2.68,13.475l-23.405,4.655l-2.681-13.475
							L367.132,179.475z"/>
						<g>
							<path d="M372.502,272.16c-0.875,0-1.76-0.255-2.536-0.786c-2.052-1.403-2.577-4.203-1.174-6.255
								c9.54-13.949,4.036-29.142,3.979-29.294c-0.869-2.328,0.314-4.92,2.642-5.79c2.328-0.868,4.921,0.314,5.79,2.642
								c0.298,0.798,7.164,19.763-4.983,37.523C375.348,271.475,373.937,272.16,372.502,272.16z"/>
						</g>
					</g>
				</g>
			</g>
		</g>
	</g>
</g>
<g>
</g>
<g>
</g>
<g>
</g>
<g>
</g>
<g>
</g>
<g>
</g>
<g>
</g>
<g>
</g>
<g>
</g>
<g>
</g>
<g>
</g>
<g>
</g>
<g>
</g>
<g>
</g>
<g>
</g>
</svg>
