<?xml version="1.0" encoding="UTF-8"?>
<svg width="960px" height="960px" viewBox="0 0 960 960" version="1.1" xmlns="http://www.w3.org/2000/svg" xmlns:xlink="http://www.w3.org/1999/xlink">
    <!-- Generator: Sketch 60.1 (88133) - https://sketch.com -->
    <title>candle_2020</title>
    <desc>Created with Sketch.</desc>
    <g id="candle_2020" stroke="none" stroke-width="1" fill="none" fill-rule="evenodd" stroke-linejoin="round">
        <path d="M479.999972,31 C592.888055,31.0272844 705.585357,35.6656321 818.255404,44.9150432 C823.951592,46.3611163 828.176037,51.1086016 830.083851,56.5927657 C904.107037,271.048137 938.883761,494.521618 936.921438,687.749727 L936.927,687.03 L937,687.027311 L936.924,687.338 L936.921438,687.749727 C936.830165,688.009365 936.735729,688.266134 936.638215,688.520055 L935.173636,694.537815 C920.808052,753.939076 855.849448,823.554622 742.096928,901.418067 L740.188786,902.728992 C731.411333,908.764706 730.402744,909.147059 718.763078,910.976891 C671.114047,918.487395 629.92544,921 480,921 C330.07456,921 288.885953,918.487395 241.209663,910.976891 C229.569997,909.147059 228.561408,908.737395 219.783955,902.701681 L217.875813,901.390756 C104.096033,823.5 39.1374292,753.884454 24.7991053,694.483193 L23.246,688.025 L23.0785051,687.749727 C23.0770179,687.603292 23.0755519,687.456839 23.0741071,687.310369 L23,687 L23.0711231,687.004754 C21.2056845,493.947291 56.0152371,270.745339 129.916092,56.5927657 C131.796652,51.1086016 136.048352,46.3884007 141.744539,44.9150432 C254.114787,35.6929165 366.51229,31.0545688 479.073319,31 L479.073319,31 Z" id="Combined-Shape" stroke="#000000" stroke-width="40"></path>
        <path d="M9.93175074,683.651039 C168.046091,690.573294 325.435008,694.020178 482.154303,694.020178 C638.622491,694.020178 793.89094,690.573294 947.931751,683.679525" id="Path" stroke="#000000" stroke-width="20"></path>
    </g>
</svg>