<?xml version="1.0" encoding="utf-8"?>
<!-- Generator: Adobe Illustrator 24.1.2, SVG Export Plug-In . SVG Version: 6.00 Build 0)  -->
<svg version="1.1" id="Layer_1" xmlns="http://www.w3.org/2000/svg" xmlns:xlink="http://www.w3.org/1999/xlink" x="0px" y="0px"
	 viewBox="0 0 959 565" style="enable-background:new 0 0 959 565;" xml:space="preserve">
<desc>Created with Sketch.</desc>
<g id="logo" transform="translate(0.000000, 0.000000)">
	<path id="Shape" d="M479,564.9c-107.5,0-214.9,0.2-322.4-0.1c-89-0.2-156-67.2-156.3-156.2c-0.3-83.5-0.3-166.9,0-250.4
		C0.5,68,65,0.9,154.9,0.6c218.6-0.8,437.3-0.7,655.9,0.1C890,1,956.3,66.2,957.7,145.4c1.7,90.8,1.7,181.8,0.2,272.6
		c-1.4,81.1-67,145.7-148.2,146.4c-110.2,1-220.5,0.3-330.7,0.3C479,564.7,479,564.8,479,564.9z M478.9,470.4
		c103.7,0,207.5-1.2,311.1,0.6c43,0.8,73.6-27.5,71.9-71.2c-3.1-78.5-0.7-157.3-0.9-236c-0.1-43.2-21.1-66.3-63.8-66.4
		C585.1,96.9,373,96.9,161,97.4c-44.3,0.1-65.7,23.3-65.9,67.7c-0.2,76.8,2.4,153.8-0.9,230.4c-2.3,52.1,32.6,76.3,76.4,75.5
		C273.3,469,376.2,470.4,478.9,470.4z"/>
	<path id="Path" d="M679.6,290.5c-1.1,64.5-46.4,100.3-105.3,75.2c-72.6-30.8-140.5-35.2-213.1-0.8c-41,19.5-75.5,7.3-93.6-21.1
		c-22.4-35.3-19.5-90.6,7.3-118.9c19.6-20.7,44.3-26,71.2-17.8c23.8,7.2,47.5,15.3,70.7,24.3c32.6,12.6,64.9,12.3,97.4,0.3
		c19.1-7,38.1-14,57.5-20.4C635.1,190.6,680.7,224.2,679.6,290.5z"/>
</g>
</svg>
