<?xml version="1.0" encoding="UTF-8" standalone="no"?>
<!DOCTYPE svg PUBLIC "-//W3C//DTD SVG 1.1//EN" "http://www.w3.org/Graphics/SVG/1.1/DTD/svg11.dtd">
<svg width="100%" height="100%" viewBox="0 0 958 930" version="1.1" xmlns="http://www.w3.org/2000/svg" xmlns:xlink="http://www.w3.org/1999/xlink" xml:space="preserve" xmlns:serif="http://www.serif.com/" style="fill-rule:evenodd;clip-rule:evenodd;stroke-linecap:round;stroke-linejoin:round;stroke-miterlimit:1.5;">
    <g transform="matrix(1.03833,0,0,1.02842,-8.86055,-21.2469)">
        <path d="M736.945,87.663C736.945,62.696 716.869,42.426 692.14,42.426L246.727,42.426C221.999,42.426 201.922,62.696 201.922,87.663L201.922,199.509L736.945,199.509L736.945,87.663Z" style="fill:none;stroke:black;stroke-width:33.55px;"/>
    </g>
    <g transform="matrix(2.18481,0,0,2.37485,219.139,-34.7839)">
        <path d="M179.79,300.98L58.09,300.98L62.04,304.92C62.34,305.22 62.65,305.53 62.95,305.83C63.25,306.13 65.7,308.75 66.29,310.37C66.67,311.4 67.2,312.49 67.5,313.7C68.41,316.12 69.02,318.85 69.62,322.48C70.23,326.11 70.83,330.35 71.14,334.89C71.44,340.04 71.75,345.18 72.05,350.33L72.05,368.5L86.01,383.34L90.56,387.58L102.7,398.18L103,398.48C105.12,400.3 107.55,402.11 118.78,402.72L119.08,402.72C130.61,402.11 132.74,400.3 134.86,398.48L135.16,398.18L147.3,387.58L152.16,383.34L151.86,383.34L166.13,368.5L165.83,368.5L165.83,366.68C165.83,361.84 165.83,356.08 166.13,350.33C166.13,345.18 166.43,340.03 166.74,334.89C167.35,330.35 167.65,326.11 168.26,322.48C168.87,318.85 169.47,316.12 170.38,313.7C170.68,312.49 175.54,304.92 175.84,304.92L179.79,300.98ZM132.17,395.44L131.87,395.74C130.35,396.95 128.53,398.47 119.12,398.77C109.41,398.47 107.89,396.95 106.07,395.74L105.77,395.44L98.18,388.48C99.39,388.78 100.61,388.78 102.13,388.78L110.02,388.78C113.06,389.08 116.09,389.08 119.13,389.08C122.17,389.08 125.2,389.08 127.93,388.78L136.13,388.78C137.34,388.78 138.86,388.78 139.77,388.48L132.17,395.44ZM166.77,309.14C166.16,310.65 165.56,311.86 165.25,313.08C164.34,315.5 163.73,318.53 163.13,322.16C162.52,325.79 161.92,330.03 161.61,334.57C161.466,336.9 161.319,339.374 161.172,341.887C161.014,344.593 160.856,347.345 160.7,350.01L160.7,364.54L158.88,364.54C157.36,364.84 156.15,364.84 154.63,364.84C152.81,365.14 150.99,365.14 149.47,365.14C147.65,365.14 145.83,365.44 144.01,365.44C141.89,365.44 139.76,365.44 137.94,365.74L125.5,365.74C123.07,366.04 120.95,366.04 119.13,366.04C117.01,366.04 114.88,366.04 112.76,365.74L100.02,365.74C98.2,365.44 96.07,365.44 94.25,365.44C92.43,365.44 90.61,365.14 88.48,365.14C86.96,365.14 85.14,365.14 83.32,364.84C82.11,364.84 80.59,364.84 79.07,364.54L77.25,364.54L77.25,354.55C82.41,354.85 87.87,355.16 93.34,355.46C102.02,355.973 110.912,356.055 118.94,356.068C120.457,356.07 121.942,356.07 123.39,356.07L123.39,353.34C114.28,353.34 103.36,353.04 93.34,352.73C87.88,352.43 82.41,352.12 77.25,351.52L77.25,350.01C77.25,347.59 76.95,345.17 76.95,342.74C82.11,343.04 87.57,343.35 93.34,343.65C103.66,344.26 114.28,344.26 123.39,344.26L123.39,341.53C114.28,341.53 103.36,341.23 93.34,340.62C87.57,340.62 81.81,340.01 76.65,339.71C76.65,337.89 76.65,336.38 76.35,334.56C76.35,333.35 76.05,332.14 76.05,330.62C81.51,331.23 87.28,331.53 93.35,331.83C103.67,332.44 114.29,332.44 123.4,332.44L123.4,329.41C114.29,329.41 103.37,329.41 93.35,328.8C87.28,328.5 81.21,328.19 75.75,327.59C75.45,325.77 75.14,323.96 74.84,322.14C74.84,320.93 74.54,319.72 74.23,318.81C80,319.42 86.68,319.72 93.35,320.02C103.67,320.32 114.29,320.63 123.4,320.63L123.4,317.6C114.29,317.6 103.37,317.6 93.35,316.99C86.37,316.69 79.39,316.38 73.62,315.78C73.32,314.87 73.01,313.96 72.71,313.05C72.41,311.84 71.8,310.63 71.19,309.11C70.89,308.5 70.28,307.6 69.67,306.69L71.49,306.99C73.92,307.29 76.65,307.29 79.69,307.6C85.15,307.9 91.53,308.21 97.9,308.51C104.88,308.81 112.17,308.783 118.84,308.81C123.113,308.827 126.701,308.841 129.686,308.849C143.88,308.889 144.431,308.815 140.09,308.51C146.46,308.21 152.54,307.9 158,307.6C161.04,307.3 164.07,307.3 166.5,306.99L168.32,306.69C167.68,307.63 167.38,308.23 166.77,309.14Z" style="fill-rule:nonzero;stroke:black;stroke-width:4.38px;stroke-linecap:butt;stroke-miterlimit:2;"/>
    </g>
    <g transform="matrix(1.03833,0,0,1.12667,-8.86055,182.53)">
        <rect x="201.922" y="42.426" width="535.023" height="157.083" style="stroke:black;stroke-width:32px;"/>
    </g>
    <g transform="matrix(1.09712,-2.42852e-16,6.92015e-16,-8.76939,-31.7452,4485.08)">
        <path d="M724.432,465L206.634,465L316.87,433.905L614.196,433.905L724.432,465Z" style="fill:none;stroke:black;stroke-width:3.84px;"/>
    </g>
    <g transform="matrix(1.10939,0,0,1.10868,-46.8487,-74.719)">
        <path d="M338.926,622.341C338.926,621.437 338.192,620.702 337.288,620.702L303.589,620.702C302.685,620.702 301.951,621.437 301.951,622.341L301.951,625.62C301.951,626.525 302.685,627.259 303.589,627.259L337.288,627.259C338.192,627.259 338.926,626.525 338.926,625.62L338.926,622.341Z" style="stroke:black;stroke-width:15.63px;"/>
    </g>
    <g transform="matrix(1.10939,0,0,1.10868,286.991,-74.719)">
        <path d="M338.926,622.341C338.926,621.437 338.192,620.702 337.288,620.702L303.589,620.702C302.685,620.702 301.951,621.437 301.951,622.341L301.951,625.62C301.951,626.525 302.685,627.259 303.589,627.259L337.288,627.259C338.192,627.259 338.926,626.525 338.926,625.62L338.926,622.341Z" style="stroke:black;stroke-width:15.63px;"/>
    </g>
    <g transform="matrix(1.4996,0,0,1.10868,-179.102,-113.212)">
        <path d="M338.926,622.341C338.926,621.437 338.383,620.702 337.714,620.702L303.163,620.702C302.494,620.702 301.951,621.437 301.951,622.341L301.951,625.62C301.951,626.525 302.494,627.259 303.163,627.259L337.714,627.259C338.383,627.259 338.926,626.525 338.926,625.62L338.926,622.341Z" style="stroke:black;stroke-width:13.14px;"/>
    </g>
    <g transform="matrix(1.48413,0,0,1.10868,173.838,-113.212)">
        <path d="M338.926,622.341C338.926,621.437 338.377,620.702 337.702,620.702L303.176,620.702C302.5,620.702 301.951,621.437 301.951,622.341L301.951,625.62C301.951,626.525 302.5,627.259 303.176,627.259L337.702,627.259C338.377,627.259 338.926,626.525 338.926,625.62L338.926,622.341Z" style="stroke:black;stroke-width:13.23px;"/>
    </g>
    <g transform="matrix(1.10939,0,0,1.10868,286.991,-74.719)">
        <path d="M338.926,622.341C338.926,621.437 338.192,620.702 337.288,620.702L303.589,620.702C302.685,620.702 301.951,621.437 301.951,622.341L301.951,625.62C301.951,626.525 302.685,627.259 303.589,627.259L337.288,627.259C338.192,627.259 338.926,626.525 338.926,625.62L338.926,622.341Z" style="stroke:black;stroke-width:15.63px;"/>
    </g>
    <g transform="matrix(1.9433,0,0,1.10868,-329.485,-151.772)">
        <path d="M338.926,622.341C338.926,621.437 338.507,620.702 337.991,620.702L302.886,620.702C302.37,620.702 301.951,621.437 301.951,622.341L301.951,625.62C301.951,626.525 302.37,627.259 302.886,627.259L337.991,627.259C338.507,627.259 338.926,626.525 338.926,625.62L338.926,622.341Z" style="stroke:black;stroke-width:10.96px;"/>
    </g>
    <g transform="matrix(2.06485,0,0,1.10868,-1.51216,-151.772)">
        <path d="M338.926,622.341C338.926,621.437 338.532,620.702 338.046,620.702L302.831,620.702C302.345,620.702 301.951,621.437 301.951,622.341L301.951,625.62C301.951,626.525 302.345,627.259 302.831,627.259L338.046,627.259C338.532,627.259 338.926,626.525 338.926,625.62L338.926,622.341Z" style="stroke:black;stroke-width:10.46px;"/>
    </g>
</svg>
